<svg width="160" height="51" viewBox="0 0 160 51" fill="none" xmlns="http://www.w3.org/2000/svg">
<path d="M52.4625 35.8886V12.888H50.3357C49.9419 12.888 49.745 12.6911 49.745 12.2972V10.2098C49.745 9.816 49.9419 9.61908 50.3357 9.61908H56.2828C56.6767 9.61908 56.8736 9.816 56.8736 10.2098V22.4585C57.5037 21.4082 58.3439 20.5811 59.3942 19.9772C60.4707 19.3733 61.626 19.0714 62.86 19.0714C65.2756 19.0714 67.1661 19.8722 68.5314 21.4738C69.8968 23.0755 70.5794 25.583 70.5794 28.9963C70.5794 32.3834 69.7917 34.9828 68.2164 36.7945C66.6672 38.5799 64.6192 39.4726 62.0724 39.4726C60.6282 39.4726 59.3679 39.2232 58.2914 38.7243C57.2412 38.1992 56.4797 37.5559 56.0071 36.7945L55.7708 38.4092C55.7446 38.8031 55.5476 39 55.18 39H50.3751C49.9813 39 49.7844 38.8031 49.7844 38.4092V36.4794C49.7844 36.0855 49.9813 35.8886 50.3751 35.8886H52.4625ZM56.8736 27.1058V34.0769C57.1887 34.5495 57.7926 35.009 58.6853 35.4554C59.6042 35.9017 60.497 36.1249 61.3634 36.1249C64.5405 36.1249 66.129 33.88 66.129 29.3902C66.129 26.1344 65.3938 24.0864 63.9234 23.2462C63.2933 22.8786 62.4268 22.6948 61.324 22.6948C60.2213 22.6948 59.1973 23.1017 58.252 23.9157C57.3331 24.7034 56.8736 25.7668 56.8736 27.1058ZM78.4557 20.056L83.0637 34.392L87.1597 22.7342H85.1511C84.7573 22.7342 84.5604 22.5372 84.5604 22.1434V20.0954C84.5604 19.7015 84.7573 19.5046 85.1511 19.5046H90.9013C91.2164 19.5046 91.4264 19.5965 91.5314 19.7803C91.6365 19.9641 91.689 20.1348 91.689 20.2923C91.689 20.4236 91.6627 20.5549 91.6102 20.6862L83.1819 42.7022C82.788 43.6999 82.4467 44.4613 82.1579 44.9865C81.8953 45.5378 81.5146 46.1155 81.0157 46.7194C80.0442 47.8747 78.6133 48.4523 76.7228 48.4523C74.8324 48.4523 73.2832 48.1635 72.0754 47.5858C71.8654 47.4808 71.7604 47.3495 71.7604 47.192C71.7604 47.0345 71.7735 46.9163 71.7997 46.8375L72.4693 44.9077C72.5743 44.5664 72.8237 44.4482 73.2176 44.5532C74.4779 44.9733 75.5019 45.1834 76.2896 45.1834C77.1035 45.1834 77.7206 44.9733 78.1407 44.5532C78.587 44.1594 79.0465 43.3192 79.5191 42.0326L80.5037 39.4332L74.5173 22.7342H72.548C72.1542 22.7342 71.9573 22.5372 71.9573 22.1434V20.0954C71.9573 19.7015 72.1542 19.5046 72.548 19.5046H77.7074C78.1013 19.5046 78.3507 19.6884 78.4557 20.056ZM100.218 22.7342V32.6591C100.218 33.8931 100.375 34.7858 100.691 35.3372C101.006 35.8886 101.596 36.1643 102.463 36.1643C103.329 36.1643 104.169 35.9805 104.983 35.6129C105.272 35.5079 105.482 35.6129 105.614 35.928L106.323 37.7397C106.349 37.8185 106.362 37.9366 106.362 38.0942C106.362 38.2254 106.231 38.3698 105.968 38.5274C104.708 39.1575 103.211 39.4726 101.478 39.4726C99.1414 39.4726 97.6054 38.8687 96.8702 37.6609C96.3451 36.8732 96.0431 36.1118 95.9643 35.3766C95.8593 34.3789 95.8068 33.3286 95.8068 32.2258V22.7342H93.5619C93.168 22.7342 92.9711 22.5372 92.9711 22.1434V20.0954C92.9711 19.7015 93.168 19.5046 93.5619 19.5046H95.8068V14.1877C95.8068 13.7938 96.0037 13.5969 96.3976 13.5969H99.6271C100.021 13.5969 100.218 13.7938 100.218 14.1877V19.5046H104.196C104.59 19.5046 104.787 19.7015 104.787 20.0954V22.1434C104.787 22.5372 104.59 22.7342 104.196 22.7342H100.218ZM117.356 39.4726C114.231 39.4726 111.934 38.5668 110.463 36.7551C109.019 34.9171 108.297 32.5015 108.297 29.5083C108.297 26.4888 109.072 23.9945 110.621 22.0252C112.17 20.056 114.402 19.0714 117.316 19.0714C118.76 19.0714 119.995 19.3471 121.019 19.8985C122.069 20.4236 122.87 21.1456 123.421 22.0646C124.471 23.8501 124.996 25.9112 124.996 28.248C124.996 29.3508 124.944 29.9547 124.839 30.0597C124.734 30.1647 124.537 30.2172 124.248 30.2172H112.669C112.8 32.1077 113.26 33.5781 114.047 34.6283C114.861 35.6523 116.253 36.1643 118.222 36.1643C119.666 36.1643 121.15 35.823 122.673 35.1403C123.04 34.9565 123.303 35.0615 123.46 35.4554L124.209 37.2671C124.34 37.5822 124.222 37.8447 123.854 38.0548C122.121 39 119.955 39.4726 117.356 39.4726ZM112.669 27.3028H120.861C120.913 24.0207 119.627 22.3797 117.001 22.3797C115.452 22.3797 114.349 22.8786 113.693 23.8763C113.063 24.8478 112.721 25.9899 112.669 27.3028Z" fill="#1E3D58"/>
<path d="M133.415 38.3067H133.886C133.995 38.3067 134.05 38.3614 134.05 38.4708V39.0069C134.05 39.1163 133.995 39.171 133.886 39.171H132.65C132.555 39.171 132.5 39.1163 132.485 39.0069L132.398 38.3614C132.026 38.9886 131.432 39.3022 130.615 39.3022C129.9 39.3022 129.349 39.0798 128.963 38.6349C128.576 38.1827 128.383 37.4862 128.383 36.5453C128.383 35.5972 128.605 34.8751 129.05 34.3792C129.502 33.8832 130.082 33.6352 130.79 33.6352C131.111 33.6352 131.395 33.6972 131.643 33.8212C131.891 33.9379 132.073 34.0801 132.19 34.2479V31.9176H131.61C131.501 31.9176 131.446 31.8629 131.446 31.7535V31.1737C131.446 31.0643 131.501 31.0096 131.61 31.0096H133.251C133.361 31.0096 133.415 31.0643 133.415 31.1737V38.3067ZM132.19 37.1142V35.1887C132.095 35.0429 131.928 34.9079 131.687 34.784C131.453 34.66 131.216 34.598 130.976 34.598C130.071 34.598 129.619 35.2106 129.619 36.4359C129.619 37.3768 129.823 37.9639 130.232 38.1973C130.407 38.2994 130.648 38.3504 130.954 38.3504C131.26 38.3504 131.541 38.2374 131.796 38.0113C132.059 37.7852 132.19 37.4862 132.19 37.1142ZM136.632 38.3067H137.321C137.431 38.3067 137.485 38.3614 137.485 38.4708V39.0069C137.485 39.1163 137.431 39.171 137.321 39.171H134.717C134.608 39.171 134.553 39.1163 134.553 39.0069V38.4708C134.553 38.3614 134.608 38.3067 134.717 38.3067C134.717 38.3067 134.947 38.3067 135.407 38.3067V34.6527H134.816C134.706 34.6527 134.652 34.598 134.652 34.4886V33.9197C134.652 33.8103 134.706 33.7556 134.816 33.7556H136.468C136.577 33.7556 136.632 33.8103 136.632 33.9197V38.3067ZM135.308 32.7819C135.17 32.636 135.1 32.45 135.1 32.224C135.1 31.9979 135.17 31.8119 135.308 31.666C135.454 31.5128 135.644 31.4363 135.877 31.4363C136.118 31.4363 136.307 31.5128 136.446 31.666C136.592 31.8119 136.665 31.9979 136.665 32.224C136.665 32.45 136.592 32.636 136.446 32.7819C136.3 32.9278 136.107 33.0007 135.866 33.0007C135.633 33.0007 135.447 32.9278 135.308 32.7819ZM142.955 34.6527V38.5364C142.955 39.0032 142.936 39.4372 142.9 39.8383C142.842 40.4583 142.612 40.9396 142.211 41.2824C141.817 41.6252 141.255 41.7966 140.526 41.7966C139.797 41.7966 139.184 41.6872 138.688 41.4684C138.601 41.4319 138.571 41.359 138.601 41.2496L138.797 40.6698C138.827 40.5677 138.9 40.5385 139.016 40.5822C139.461 40.7646 139.91 40.8557 140.362 40.8557C140.821 40.8557 141.164 40.7463 141.39 40.5275C141.616 40.3087 141.729 39.9222 141.729 39.3679V38.5145C141.408 39.0397 140.891 39.3022 140.176 39.3022C139.461 39.3022 138.914 39.0725 138.535 38.613C138.163 38.1535 137.977 37.457 137.977 36.5234C137.977 35.5826 138.196 34.8678 138.633 34.3792C139.078 33.8832 139.633 33.6352 140.296 33.6352C140.967 33.6352 141.507 33.8723 141.915 34.3463L142.025 33.9197C142.061 33.8103 142.127 33.7556 142.222 33.7556H143.556C143.666 33.7556 143.721 33.8103 143.721 33.9197V34.4886C143.721 34.598 143.666 34.6527 143.556 34.6527H142.955ZM141.729 37.1251V35.1778C141.7 35.134 141.653 35.0793 141.587 35.0137C141.529 34.9481 141.394 34.8642 141.182 34.7621C140.978 34.6527 140.756 34.598 140.515 34.598C140.128 34.598 139.815 34.7438 139.574 35.0356C139.334 35.32 139.213 35.7795 139.213 36.414C139.213 37.0486 139.301 37.5336 139.476 37.8691C139.651 38.1973 139.99 38.3614 140.493 38.3614C140.814 38.3614 141.099 38.2483 141.346 38.0222C141.602 37.7961 141.729 37.4971 141.729 37.1251ZM146.087 38.3067H146.776C146.886 38.3067 146.94 38.3614 146.94 38.4708V39.0069C146.94 39.1163 146.886 39.171 146.776 39.171H144.172C144.063 39.171 144.008 39.1163 144.008 39.0069V38.4708C144.008 38.3614 144.063 38.3067 144.172 38.3067C144.172 38.3067 144.402 38.3067 144.862 38.3067V34.6527H144.271C144.162 34.6527 144.107 34.598 144.107 34.4886V33.9197C144.107 33.8103 144.162 33.7556 144.271 33.7556H145.923C146.032 33.7556 146.087 33.8103 146.087 33.9197V38.3067ZM144.763 32.7819C144.625 32.636 144.555 32.45 144.555 32.224C144.555 31.9979 144.625 31.8119 144.763 31.666C144.909 31.5128 145.099 31.4363 145.332 31.4363C145.573 31.4363 145.762 31.5128 145.901 31.666C146.047 31.8119 146.12 31.9979 146.12 32.224C146.12 32.45 146.047 32.636 145.901 32.7819C145.755 32.9278 145.562 33.0007 145.321 33.0007C145.088 33.0007 144.902 32.9278 144.763 32.7819ZM149.226 34.6527V37.4096C149.226 37.7524 149.27 38.0004 149.358 38.1535C149.445 38.3067 149.609 38.3833 149.85 38.3833C150.091 38.3833 150.324 38.3322 150.55 38.2301C150.63 38.2009 150.689 38.2301 150.725 38.3176L150.922 38.8209C150.929 38.8428 150.933 38.8756 150.933 38.9193C150.933 38.9558 150.896 38.9959 150.824 39.0397C150.473 39.2147 150.058 39.3022 149.576 39.3022C148.927 39.3022 148.501 39.1345 148.296 38.799C148.15 38.5802 148.067 38.3687 148.045 38.1645C148.016 37.8873 148.001 37.5956 148.001 37.2892V34.6527H147.377C147.268 34.6527 147.213 34.598 147.213 34.4886V33.9197C147.213 33.8103 147.268 33.7556 147.377 33.7556H148.001V32.2787C148.001 32.1692 148.056 32.1145 148.165 32.1145H149.062C149.172 32.1145 149.226 32.1692 149.226 32.2787V33.7556H150.331C150.441 33.7556 150.495 33.8103 150.495 33.9197V34.4886C150.495 34.598 150.441 34.6527 150.331 34.6527H149.226ZM154.569 35.9217V35.5388C154.569 35.021 154.423 34.6964 154.132 34.5651C153.993 34.5068 153.792 34.4776 153.53 34.4776C153.034 34.4776 152.735 34.711 152.633 35.1778C152.611 35.2872 152.556 35.3419 152.469 35.3419H151.768C151.652 35.3419 151.601 35.2872 151.615 35.1778C151.644 34.6454 151.86 34.2552 152.261 34.0072C152.662 33.7592 153.172 33.6352 153.792 33.6352C155.098 33.6352 155.751 34.2333 155.751 35.4294V38.3067H156.221C156.331 38.3067 156.385 38.3614 156.385 38.4708V39.0069C156.385 39.1163 156.331 39.171 156.221 39.171H154.93C154.835 39.171 154.781 39.1163 154.766 39.0069L154.689 38.5036C154.296 39.036 153.727 39.3022 152.983 39.3022C152.516 39.3022 152.129 39.1819 151.823 38.9412C151.517 38.6932 151.364 38.2994 151.364 37.7597C151.364 37.0522 151.659 36.5672 152.25 36.3046C152.738 36.0785 153.322 35.9545 154 35.9327C154.139 35.9327 154.328 35.929 154.569 35.9217ZM154.591 37.519V36.6766C153.891 36.6766 153.461 36.7094 153.3 36.7751C153.14 36.8407 152.997 36.9063 152.873 36.972C152.64 37.096 152.523 37.3221 152.523 37.6503C152.523 38.1535 152.811 38.4051 153.388 38.4051C153.767 38.4051 154.062 38.3176 154.274 38.1426C154.485 37.9602 154.591 37.7524 154.591 37.519ZM158.972 31.1737V38.3067H159.661C159.77 38.3067 159.825 38.3614 159.825 38.4708V39.0069C159.825 39.1163 159.77 39.171 159.661 39.171H157.057C156.948 39.171 156.893 39.1163 156.893 39.0069V38.4708C156.893 38.3614 156.948 38.3067 157.057 38.3067H157.746V31.9067H157.156C157.046 31.9067 156.991 31.852 156.991 31.7426V31.1737C156.991 31.0643 157.046 31.0096 157.156 31.0096H158.808C158.917 31.0096 158.972 31.0643 158.972 31.1737Z" fill="#1E3D58"/>
<rect x="0.820513" y="-0.820513" width="39.3846" height="39.3846" rx="3.28205" transform="matrix(1 0 0 -1 0 44.0342)" stroke="#1E3D58" stroke-width="1.64103"/>
<path d="M12.8174 34.7521V14.4865H18.8025C20.9738 14.4865 22.6208 14.9366 23.7436 15.8366C24.8664 16.7274 25.4278 18.0451 25.4278 19.7896C25.4278 20.8381 25.1401 21.7521 24.5648 22.5315C23.9988 23.3017 23.2193 23.8538 22.2265 24.1879C23.4049 24.4477 24.3514 25.0276 25.0659 25.9277C25.7897 26.8278 26.1515 27.867 26.1515 29.0455C26.1515 30.8363 25.5716 32.2375 24.4117 33.2489C23.2611 34.2511 21.6558 34.7521 19.5958 34.7521H12.8174ZM14.5294 25.0091V33.3046H19.6654C21.1315 33.3046 22.2914 32.9334 23.1451 32.1911C24.0081 31.4395 24.4395 30.4002 24.4395 29.0733C24.4395 27.8206 24.0266 26.8324 23.2008 26.1086C22.3842 25.3756 21.2522 25.0091 19.8046 25.0091H14.5294ZM14.5294 23.5754H19.2061C20.6351 23.5476 21.7393 23.2135 22.5188 22.5733C23.3075 21.9237 23.7019 20.9819 23.7019 19.7478C23.7019 18.4487 23.2936 17.493 22.477 16.8805C21.6697 16.2588 20.4449 15.948 18.8025 15.948H14.5294V23.5754Z" fill="#1E3D58"/>
<path d="M16.8622 34.7521V14.4865H22.5272C24.1881 14.4865 25.6774 14.867 26.995 15.6279C28.3127 16.3795 29.338 17.4605 30.0711 18.8709C30.8134 20.2813 31.1846 21.8866 31.1846 23.6868V25.5519C31.1846 27.3613 30.818 28.9666 30.085 30.3678C29.3519 31.7689 28.3173 32.8499 26.9811 33.6108C25.6542 34.3717 24.1278 34.7521 22.4019 34.7521H16.8622ZM18.5742 15.948V33.3046H22.4158C24.55 33.3046 26.262 32.5994 27.5518 31.189C28.8416 29.7692 29.4865 27.8531 29.4865 25.4405V23.6589C29.4865 21.3299 28.8509 19.4648 27.5796 18.0636C26.3084 16.6625 24.6335 15.9573 22.555 15.948H18.5742Z" fill="#1E3D58"/>
</svg>
