<svg width="160" height="51" viewBox="0 0 160 51" fill="none" xmlns="http://www.w3.org/2000/svg">
<rect x="0.820513" y="-0.820513" width="39.3846" height="39.3846" rx="3.28205" transform="matrix(1 0 0 -1 0 44.3077)" stroke="white" stroke-width="1.64103"/>
<path d="M12.8174 35.0256V14.76H18.8025C20.9738 14.76 22.6208 15.2101 23.7436 16.1101C24.8664 17.0009 25.4278 18.3186 25.4278 20.063C25.4278 21.1116 25.1401 22.0256 24.5648 22.805C23.9988 23.5752 23.2193 24.1273 22.2265 24.4614C23.4049 24.7212 24.3514 25.3011 25.0659 26.2012C25.7897 27.1013 26.1515 28.1405 26.1515 29.319C26.1515 31.1098 25.5716 32.511 24.4117 33.5224C23.2611 34.5246 21.6558 35.0256 19.5958 35.0256H12.8174ZM14.5294 25.2826V33.5781H19.6654C21.1315 33.5781 22.2914 33.2069 23.1451 32.4646C24.0081 31.713 24.4395 30.6737 24.4395 29.3468C24.4395 28.0941 24.0266 27.1059 23.2008 26.3821C22.3842 25.6491 21.2522 25.2826 19.8046 25.2826H14.5294ZM14.5294 23.8489H19.2061C20.6351 23.8211 21.7393 23.487 22.5188 22.8468C23.3075 22.1972 23.7019 21.2554 23.7019 20.0213C23.7019 18.7222 23.2936 17.7665 22.477 17.154C21.6697 16.5323 20.4449 16.2215 18.8025 16.2215H14.5294V23.8489Z" fill="white"/>
<path d="M16.8622 35.0256V14.76H22.5272C24.1881 14.76 25.6774 15.1405 26.995 15.9014C28.3127 16.653 29.338 17.734 30.0711 19.1444C30.8134 20.5548 31.1846 22.1601 31.1846 23.9603V25.8254C31.1846 27.6348 30.818 29.2401 30.085 30.6412C29.3519 32.0424 28.3173 33.1234 26.9811 33.8843C25.6542 34.6452 24.1278 35.0256 22.4019 35.0256H16.8622ZM18.5742 16.2215V33.5781H22.4158C24.55 33.5781 26.262 32.8729 27.5518 31.4625C28.8416 30.0427 29.4865 28.1266 29.4865 25.714V23.9324C29.4865 21.6034 28.8509 19.7383 27.5796 18.3371C26.3084 16.936 24.6335 16.2308 22.555 16.2215H18.5742Z" fill="white"/>
<path d="M52.4625 35.8886V12.888H50.3357C49.9419 12.888 49.745 12.6911 49.745 12.2972V10.2098C49.745 9.816 49.9419 9.61908 50.3357 9.61908H56.2828C56.6767 9.61908 56.8736 9.816 56.8736 10.2098V22.4585C57.5037 21.4082 58.3439 20.5811 59.3942 19.9772C60.4707 19.3733 61.626 19.0714 62.86 19.0714C65.2756 19.0714 67.1661 19.8722 68.5314 21.4738C69.8968 23.0755 70.5794 25.583 70.5794 28.9963C70.5794 32.3834 69.7917 34.9828 68.2164 36.7945C66.6672 38.5799 64.6192 39.4726 62.0724 39.4726C60.6282 39.4726 59.3679 39.2232 58.2914 38.7243C57.2412 38.1992 56.4797 37.5559 56.0071 36.7945L55.7708 38.4092C55.7446 38.8031 55.5476 39 55.18 39H50.3751C49.9813 39 49.7844 38.8031 49.7844 38.4092V36.4794C49.7844 36.0855 49.9813 35.8886 50.3751 35.8886H52.4625ZM56.8736 27.1058V34.0769C57.1887 34.5495 57.7926 35.009 58.6853 35.4554C59.6042 35.9017 60.497 36.1249 61.3634 36.1249C64.5405 36.1249 66.129 33.88 66.129 29.3902C66.129 26.1344 65.3938 24.0864 63.9234 23.2462C63.2933 22.8786 62.4268 22.6948 61.324 22.6948C60.2213 22.6948 59.1973 23.1017 58.252 23.9157C57.3331 24.7034 56.8736 25.7668 56.8736 27.1058ZM78.4557 20.056L83.0637 34.392L87.1597 22.7342H85.1511C84.7573 22.7342 84.5604 22.5372 84.5604 22.1434V20.0954C84.5604 19.7015 84.7573 19.5046 85.1511 19.5046H90.9013C91.2164 19.5046 91.4264 19.5965 91.5314 19.7803C91.6365 19.9641 91.689 20.1348 91.689 20.2923C91.689 20.4236 91.6627 20.5549 91.6102 20.6862L83.1819 42.7022C82.788 43.6999 82.4467 44.4613 82.1579 44.9865C81.8953 45.5378 81.5146 46.1155 81.0157 46.7194C80.0442 47.8747 78.6133 48.4523 76.7228 48.4523C74.8324 48.4523 73.2832 48.1635 72.0754 47.5858C71.8654 47.4808 71.7604 47.3495 71.7604 47.192C71.7604 47.0345 71.7735 46.9163 71.7997 46.8375L72.4693 44.9077C72.5743 44.5664 72.8237 44.4482 73.2176 44.5532C74.4779 44.9733 75.5019 45.1834 76.2896 45.1834C77.1035 45.1834 77.7206 44.9733 78.1407 44.5532C78.587 44.1594 79.0465 43.3192 79.5191 42.0326L80.5037 39.4332L74.5173 22.7342H72.548C72.1542 22.7342 71.9573 22.5372 71.9573 22.1434V20.0954C71.9573 19.7015 72.1542 19.5046 72.548 19.5046H77.7074C78.1013 19.5046 78.3507 19.6884 78.4557 20.056ZM100.218 22.7342V32.6591C100.218 33.8931 100.375 34.7858 100.691 35.3372C101.006 35.8886 101.596 36.1643 102.463 36.1643C103.329 36.1643 104.169 35.9805 104.983 35.6129C105.272 35.5079 105.482 35.6129 105.614 35.928L106.323 37.7397C106.349 37.8185 106.362 37.9366 106.362 38.0942C106.362 38.2254 106.231 38.3698 105.968 38.5274C104.708 39.1575 103.211 39.4726 101.478 39.4726C99.1414 39.4726 97.6054 38.8687 96.8702 37.6609C96.3451 36.8732 96.0431 36.1118 95.9643 35.3766C95.8593 34.3789 95.8068 33.3286 95.8068 32.2258V22.7342H93.5619C93.168 22.7342 92.9711 22.5372 92.9711 22.1434V20.0954C92.9711 19.7015 93.168 19.5046 93.5619 19.5046H95.8068V14.1877C95.8068 13.7938 96.0037 13.5969 96.3976 13.5969H99.6271C100.021 13.5969 100.218 13.7938 100.218 14.1877V19.5046H104.196C104.59 19.5046 104.787 19.7015 104.787 20.0954V22.1434C104.787 22.5372 104.59 22.7342 104.196 22.7342H100.218ZM117.356 39.4726C114.231 39.4726 111.934 38.5668 110.463 36.7551C109.019 34.9171 108.297 32.5015 108.297 29.5083C108.297 26.4888 109.072 23.9945 110.621 22.0252C112.17 20.056 114.402 19.0714 117.316 19.0714C118.76 19.0714 119.995 19.3471 121.019 19.8985C122.069 20.4236 122.87 21.1456 123.421 22.0646C124.471 23.8501 124.996 25.9112 124.996 28.248C124.996 29.3508 124.944 29.9547 124.839 30.0597C124.734 30.1647 124.537 30.2172 124.248 30.2172H112.669C112.8 32.1077 113.26 33.5781 114.047 34.6283C114.861 35.6523 116.253 36.1643 118.222 36.1643C119.666 36.1643 121.15 35.823 122.673 35.1403C123.04 34.9565 123.303 35.0615 123.46 35.4554L124.209 37.2671C124.34 37.5822 124.222 37.8447 123.854 38.0548C122.121 39 119.955 39.4726 117.356 39.4726ZM112.669 27.3028H120.861C120.913 24.0207 119.627 22.3797 117.001 22.3797C115.452 22.3797 114.349 22.8786 113.693 23.8763C113.063 24.8478 112.721 25.9899 112.669 27.3028Z" fill="white"/>
<path d="M133.415 38.0331H133.886C133.995 38.0331 134.05 38.0878 134.05 38.1972V38.7333C134.05 38.8427 133.995 38.8974 133.886 38.8974H132.65C132.555 38.8974 132.5 38.8427 132.485 38.7333L132.398 38.0878C132.026 38.7151 131.432 39.0287 130.615 39.0287C129.9 39.0287 129.349 38.8062 128.963 38.3613C128.576 37.9091 128.383 37.2126 128.383 36.2718C128.383 35.3236 128.605 34.6016 129.05 34.1056C129.502 33.6097 130.082 33.3617 130.79 33.3617C131.111 33.3617 131.395 33.4237 131.643 33.5477C131.891 33.6644 132.073 33.8066 132.19 33.9743V31.6441H131.61C131.501 31.6441 131.446 31.5894 131.446 31.48V30.9001C131.446 30.7907 131.501 30.736 131.61 30.736H133.251C133.361 30.736 133.415 30.7907 133.415 30.9001V38.0331ZM132.19 36.8406V34.9152C132.095 34.7693 131.928 34.6344 131.687 34.5104C131.453 34.3864 131.216 34.3244 130.976 34.3244C130.071 34.3244 129.619 34.9371 129.619 36.1624C129.619 37.1032 129.823 37.6903 130.232 37.9237C130.407 38.0258 130.648 38.0769 130.954 38.0769C131.26 38.0769 131.541 37.9638 131.796 37.7377C132.059 37.5116 132.19 37.2126 132.19 36.8406ZM136.632 38.0331H137.321C137.431 38.0331 137.485 38.0878 137.485 38.1972V38.7333C137.485 38.8427 137.431 38.8974 137.321 38.8974H134.717C134.608 38.8974 134.553 38.8427 134.553 38.7333V38.1972C134.553 38.0878 134.608 38.0331 134.717 38.0331C134.717 38.0331 134.947 38.0331 135.407 38.0331V34.3791H134.816C134.706 34.3791 134.652 34.3244 134.652 34.215V33.6461C134.652 33.5367 134.706 33.482 134.816 33.482H136.468C136.577 33.482 136.632 33.5367 136.632 33.6461V38.0331ZM135.308 32.5083C135.17 32.3625 135.1 32.1765 135.1 31.9504C135.1 31.7243 135.17 31.5383 135.308 31.3924C135.454 31.2393 135.644 31.1627 135.877 31.1627C136.118 31.1627 136.307 31.2393 136.446 31.3924C136.592 31.5383 136.665 31.7243 136.665 31.9504C136.665 32.1765 136.592 32.3625 136.446 32.5083C136.3 32.6542 136.107 32.7271 135.866 32.7271C135.633 32.7271 135.447 32.6542 135.308 32.5083ZM142.955 34.3791V38.2629C142.955 38.7297 142.936 39.1636 142.9 39.5648C142.842 40.1847 142.612 40.6661 142.211 41.0089C141.817 41.3516 141.255 41.523 140.526 41.523C139.797 41.523 139.184 41.4136 138.688 41.1948C138.601 41.1584 138.571 41.0854 138.601 40.976L138.797 40.3962C138.827 40.2941 138.9 40.2649 139.016 40.3087C139.461 40.491 139.91 40.5822 140.362 40.5822C140.821 40.5822 141.164 40.4728 141.39 40.254C141.616 40.0352 141.729 39.6486 141.729 39.0943V38.241C141.408 38.7661 140.891 39.0287 140.176 39.0287C139.461 39.0287 138.914 38.7989 138.535 38.3395C138.163 37.88 137.977 37.1834 137.977 36.2499C137.977 35.309 138.196 34.5943 138.633 34.1056C139.078 33.6097 139.633 33.3617 140.296 33.3617C140.967 33.3617 141.507 33.5987 141.915 34.0728L142.025 33.6461C142.061 33.5367 142.127 33.482 142.222 33.482H143.556C143.666 33.482 143.721 33.5367 143.721 33.6461V34.215C143.721 34.3244 143.666 34.3791 143.556 34.3791H142.955ZM141.729 36.8516V34.9042C141.7 34.8605 141.653 34.8058 141.587 34.7401C141.529 34.6745 141.394 34.5906 141.182 34.4885C140.978 34.3791 140.756 34.3244 140.515 34.3244C140.128 34.3244 139.815 34.4703 139.574 34.762C139.334 35.0465 139.213 35.5059 139.213 36.1405C139.213 36.775 139.301 37.26 139.476 37.5955C139.651 37.9237 139.99 38.0878 140.493 38.0878C140.814 38.0878 141.099 37.9748 141.346 37.7487C141.602 37.5226 141.729 37.2236 141.729 36.8516ZM146.087 38.0331H146.776C146.886 38.0331 146.94 38.0878 146.94 38.1972V38.7333C146.94 38.8427 146.886 38.8974 146.776 38.8974H144.172C144.063 38.8974 144.008 38.8427 144.008 38.7333V38.1972C144.008 38.0878 144.063 38.0331 144.172 38.0331C144.172 38.0331 144.402 38.0331 144.862 38.0331V34.3791H144.271C144.162 34.3791 144.107 34.3244 144.107 34.215V33.6461C144.107 33.5367 144.162 33.482 144.271 33.482H145.923C146.032 33.482 146.087 33.5367 146.087 33.6461V38.0331ZM144.763 32.5083C144.625 32.3625 144.555 32.1765 144.555 31.9504C144.555 31.7243 144.625 31.5383 144.763 31.3924C144.909 31.2393 145.099 31.1627 145.332 31.1627C145.573 31.1627 145.762 31.2393 145.901 31.3924C146.047 31.5383 146.12 31.7243 146.12 31.9504C146.12 32.1765 146.047 32.3625 145.901 32.5083C145.755 32.6542 145.562 32.7271 145.321 32.7271C145.088 32.7271 144.902 32.6542 144.763 32.5083ZM149.226 34.3791V37.136C149.226 37.4788 149.27 37.7268 149.358 37.88C149.445 38.0331 149.609 38.1097 149.85 38.1097C150.091 38.1097 150.324 38.0587 150.55 37.9565C150.63 37.9274 150.689 37.9565 150.725 38.0441L150.922 38.5473C150.929 38.5692 150.933 38.602 150.933 38.6458C150.933 38.6822 150.896 38.7224 150.824 38.7661C150.473 38.9412 150.058 39.0287 149.576 39.0287C148.927 39.0287 148.501 38.8609 148.296 38.5254C148.15 38.3066 148.067 38.0951 148.045 37.8909C148.016 37.6138 148.001 37.322 148.001 37.0157V34.3791H147.377C147.268 34.3791 147.213 34.3244 147.213 34.215V33.6461C147.213 33.5367 147.268 33.482 147.377 33.482H148.001V32.0051C148.001 31.8957 148.056 31.841 148.165 31.841H149.062C149.172 31.841 149.226 31.8957 149.226 32.0051V33.482H150.331C150.441 33.482 150.495 33.5367 150.495 33.6461V34.215C150.495 34.3244 150.441 34.3791 150.331 34.3791H149.226ZM154.569 35.6482V35.2653C154.569 34.7474 154.423 34.4229 154.132 34.2916C153.993 34.2332 153.792 34.2041 153.53 34.2041C153.034 34.2041 152.735 34.4375 152.633 34.9042C152.611 35.0136 152.556 35.0683 152.469 35.0683H151.768C151.652 35.0683 151.601 35.0136 151.615 34.9042C151.644 34.3718 151.86 33.9816 152.261 33.7336C152.662 33.4857 153.172 33.3617 153.792 33.3617C155.098 33.3617 155.751 33.9597 155.751 35.1559V38.0331H156.221C156.331 38.0331 156.385 38.0878 156.385 38.1972V38.7333C156.385 38.8427 156.331 38.8974 156.221 38.8974H154.93C154.835 38.8974 154.781 38.8427 154.766 38.7333L154.689 38.23C154.296 38.7625 153.727 39.0287 152.983 39.0287C152.516 39.0287 152.129 38.9083 151.823 38.6677C151.517 38.4197 151.364 38.0258 151.364 37.4861C151.364 36.7787 151.659 36.2936 152.25 36.0311C152.738 35.805 153.322 35.681 154 35.6591C154.139 35.6591 154.328 35.6555 154.569 35.6482ZM154.591 37.2454V36.403C153.891 36.403 153.461 36.4359 153.3 36.5015C153.14 36.5671 152.997 36.6328 152.873 36.6984C152.64 36.8224 152.523 37.0485 152.523 37.3767C152.523 37.88 152.811 38.1316 153.388 38.1316C153.767 38.1316 154.062 38.0441 154.274 37.869C154.485 37.6867 154.591 37.4788 154.591 37.2454ZM158.972 30.9001V38.0331H159.661C159.77 38.0331 159.825 38.0878 159.825 38.1972V38.7333C159.825 38.8427 159.77 38.8974 159.661 38.8974H157.057C156.948 38.8974 156.893 38.8427 156.893 38.7333V38.1972C156.893 38.0878 156.948 38.0331 157.057 38.0331H157.746V31.6331H157.156C157.046 31.6331 156.991 31.5784 156.991 31.469V30.9001C156.991 30.7907 157.046 30.736 157.156 30.736H158.808C158.917 30.736 158.972 30.7907 158.972 30.9001Z" fill="white"/>
</svg>
