<svg width="267" height="85" viewBox="0 0 267 85" fill="none" xmlns="http://www.w3.org/2000/svg">
<rect x="1.36143" y="-1.36143" width="65.3485" height="65.3485" rx="5.4457" transform="matrix(1 0 0 -1 0.77475 74.2382)" stroke="white" stroke-width="2.72285"/>
<path d="M22.0419 59.6969V26.0714H31.9725C35.5752 26.0714 38.3081 26.8182 40.171 28.3116C42.034 29.7896 42.9654 31.9759 42.9654 34.8704C42.9654 36.6102 42.4882 38.1267 41.5336 39.42C40.5944 40.6979 39.3011 41.614 37.6537 42.1682C39.6091 42.5993 41.1795 43.5616 42.365 45.055C43.5659 46.5485 44.1664 48.2729 44.1664 50.2282C44.1664 53.1997 43.2041 55.5245 41.2796 57.2027C39.3704 58.8655 36.7069 59.6969 33.2889 59.6969H22.0419ZM24.8825 43.5308V57.2951H33.4044C35.837 57.2951 37.7615 56.6792 39.178 55.4475C40.6098 54.2004 41.3257 52.476 41.3257 50.2744C41.3257 48.1959 40.6406 46.5562 39.2703 45.3553C37.9155 44.139 36.0371 43.5308 33.6353 43.5308H24.8825ZM24.8825 41.1521H32.6422C35.0133 41.1059 36.8454 40.5516 38.1387 39.4893C39.4474 38.4116 40.1017 36.8488 40.1017 34.8011C40.1017 32.6456 39.4243 31.0598 38.0694 30.0437C36.73 29.0121 34.6976 28.4964 31.9725 28.4964H24.8825V41.1521Z" fill="white"/>
<path d="M28.7532 59.6969V26.0714H38.1526C40.9085 26.0714 43.3796 26.7027 45.5659 27.9652C47.7522 29.2123 49.4535 31.0059 50.6698 33.3462C51.9015 35.6864 52.5173 38.35 52.5173 41.3368V44.4315C52.5173 47.4338 51.9092 50.0973 50.6929 52.4222C49.4766 54.747 47.7599 56.5407 45.5428 57.8032C43.3412 59.0657 40.8085 59.6969 37.9448 59.6969H28.7532ZM31.5938 28.4964V57.2951H37.9679C41.509 57.2951 44.3496 56.125 46.4897 53.7847C48.6298 51.4291 49.6998 48.2498 49.6998 44.2467V41.2907C49.6998 37.4262 48.6452 34.3315 46.5359 32.0067C44.4266 29.6819 41.6476 28.5117 38.1988 28.4964H31.5938Z" fill="white"/>
<path d="M87.8225 60.5587V22.3952H84.2937C83.6402 22.3952 83.3135 22.0685 83.3135 21.415V17.9515C83.3135 17.298 83.6402 16.9713 84.2937 16.9713H94.1613C94.8148 16.9713 95.1415 17.298 95.1415 17.9515V38.2749C96.1871 36.5322 97.5812 35.1599 99.3238 34.1579C101.11 33.1559 103.027 32.6549 105.075 32.6549C109.083 32.6549 112.219 33.9837 114.485 36.6412C116.75 39.2987 117.883 43.4592 117.883 49.1227C117.883 54.7427 116.576 59.0557 113.962 62.0617C111.392 65.0242 107.993 66.5054 103.768 66.5054C101.371 66.5054 99.2803 66.0915 97.4941 65.2638C95.7515 64.3925 94.4881 63.3251 93.7039 62.0617L93.3118 64.741C93.2682 65.3945 92.9415 65.7212 92.3316 65.7212H84.359C83.7056 65.7212 83.3788 65.3945 83.3788 64.741V61.5389C83.3788 60.8854 83.7056 60.5587 84.359 60.5587H87.8225ZM95.1415 45.986V57.5527C95.6643 58.3368 96.6663 59.0992 98.1476 59.8399C99.6724 60.5805 101.154 60.9508 102.591 60.9508C107.863 60.9508 110.498 57.2259 110.498 49.7762C110.498 44.3741 109.279 40.9759 106.839 39.5818C105.793 38.9719 104.356 38.667 102.526 38.667C100.696 38.667 98.9971 39.3422 97.4287 40.6928C95.9039 41.9997 95.1415 43.7641 95.1415 45.986ZM130.951 34.2886L138.597 58.0755L145.393 38.7323H142.061C141.407 38.7323 141.08 38.4056 141.08 37.7521V34.354C141.08 33.7005 141.407 33.3737 142.061 33.3737H151.602C152.124 33.3737 152.473 33.5262 152.647 33.8312C152.821 34.1361 152.909 34.4193 152.909 34.6807C152.909 34.8985 152.865 35.1164 152.778 35.3342L138.793 71.864C138.14 73.5195 137.573 74.7829 137.094 75.6542C136.659 76.5691 136.027 77.5275 135.199 78.5295C133.587 80.4464 131.213 81.4049 128.076 81.4049C124.939 81.4049 122.369 80.9256 120.365 79.9672C120.016 79.7929 119.842 79.5751 119.842 79.3137C119.842 79.0523 119.864 78.8563 119.908 78.7256L121.019 75.5235C121.193 74.9571 121.607 74.7611 122.26 74.9354C124.351 75.6324 126.05 75.9809 127.357 75.9809C128.708 75.9809 129.732 75.6324 130.429 74.9354C131.169 74.2819 131.932 72.8878 132.716 70.7531L134.35 66.4401L124.417 38.7323H121.149C120.496 38.7323 120.169 38.4056 120.169 37.7521V34.354C120.169 33.7005 120.496 33.3737 121.149 33.3737H129.71C130.363 33.3737 130.777 33.6787 130.951 34.2886ZM167.06 38.7323V55.2001C167.06 57.2477 167.321 58.7289 167.844 59.6438C168.367 60.5587 169.347 61.0161 170.785 61.0161C172.223 61.0161 173.617 60.7112 174.967 60.1013C175.446 59.927 175.795 60.1013 176.013 60.624L177.189 63.6301C177.233 63.7608 177.254 63.9568 177.254 64.2182C177.254 64.436 177.037 64.6756 176.601 64.937C174.51 65.9826 172.027 66.5054 169.151 66.5054C165.274 66.5054 162.725 65.5034 161.505 63.4994C160.634 62.1924 160.133 60.929 160.002 59.7092C159.828 58.0537 159.741 56.311 159.741 54.4813V38.7323H156.016C155.363 38.7323 155.036 38.4056 155.036 37.7521V34.354C155.036 33.7005 155.363 33.3737 156.016 33.3737H159.741V24.5517C159.741 23.8982 160.068 23.5715 160.721 23.5715H166.08C166.733 23.5715 167.06 23.8982 167.06 24.5517V33.3737H173.66C174.314 33.3737 174.64 33.7005 174.64 34.354V37.7521C174.64 38.4056 174.314 38.7323 173.66 38.7323H167.06ZM195.496 66.5054C190.312 66.5054 186.5 65.0024 184.06 61.9964C181.664 58.9468 180.466 54.9387 180.466 49.9722C180.466 44.9622 181.751 40.8235 184.321 37.556C186.892 34.2886 190.595 32.6549 195.43 32.6549C197.827 32.6549 199.874 33.1123 201.573 34.0272C203.316 34.8985 204.645 36.0966 205.559 37.6214C207.302 40.5839 208.173 44.0038 208.173 47.8811C208.173 49.7109 208.086 50.7129 207.912 50.8871C207.738 51.0614 207.411 51.1485 206.932 51.1485H187.719C187.937 54.2852 188.7 56.7249 190.007 58.4675C191.357 60.1666 193.666 61.0161 196.933 61.0161C199.33 61.0161 201.791 60.4498 204.318 59.3171C204.928 59.0121 205.363 59.1864 205.625 59.8399L206.866 62.8459C207.084 63.3687 206.888 63.8043 206.278 64.1529C203.403 65.7212 199.809 66.5054 195.496 66.5054ZM187.719 46.3127H201.312C201.399 40.867 199.264 38.1442 194.908 38.1442C192.337 38.1442 190.508 38.9719 189.418 40.6274C188.373 42.2393 187.806 44.1345 187.719 46.3127Z" fill="white"/>
<path d="M222.143 63.5757H222.923C223.105 63.5757 223.195 63.6664 223.195 63.848V64.7374C223.195 64.919 223.105 65.0097 222.923 65.0097H220.872C220.715 65.0097 220.624 64.919 220.6 64.7374L220.454 63.6664C219.837 64.7072 218.851 65.2275 217.496 65.2275C216.31 65.2275 215.396 64.8585 214.755 64.1203C214.113 63.37 213.793 62.2143 213.793 60.6532C213.793 59.08 214.162 57.8819 214.9 57.059C215.65 56.2361 216.612 55.8246 217.786 55.8246C218.319 55.8246 218.791 55.9275 219.202 56.1332C219.613 56.3268 219.916 56.5628 220.11 56.8412V52.9747H219.148C218.966 52.9747 218.875 52.884 218.875 52.7024V51.7404C218.875 51.5588 218.966 51.4681 219.148 51.4681H221.87C222.052 51.4681 222.143 51.5588 222.143 51.7404V63.5757ZM220.11 61.5971V58.4023C219.952 58.1602 219.674 57.9364 219.275 57.7306C218.887 57.5249 218.494 57.422 218.095 57.422C216.594 57.422 215.844 58.4386 215.844 60.4716C215.844 62.0327 216.183 63.0069 216.86 63.3942C217.151 63.5636 217.55 63.6483 218.058 63.6483C218.567 63.6483 219.033 63.4607 219.456 63.0856C219.892 62.7104 220.11 62.2143 220.11 61.5971ZM227.48 63.5757H228.623C228.805 63.5757 228.895 63.6664 228.895 63.848V64.7374C228.895 64.919 228.805 65.0097 228.623 65.0097H224.303C224.121 65.0097 224.031 64.919 224.031 64.7374V63.848C224.031 63.6664 224.121 63.5757 224.303 63.5757C224.303 63.5757 224.684 63.5757 225.447 63.5757V57.5128H224.466C224.285 57.5128 224.194 57.422 224.194 57.2405V56.2966C224.194 56.1151 224.285 56.0243 224.466 56.0243H227.207C227.389 56.0243 227.48 56.1151 227.48 56.2966V63.5757ZM225.283 54.4087C225.053 54.1667 224.938 53.8581 224.938 53.483C224.938 53.1078 225.053 52.7992 225.283 52.5572C225.525 52.3031 225.84 52.176 226.227 52.176C226.626 52.176 226.941 52.3031 227.171 52.5572C227.413 52.7992 227.534 53.1078 227.534 53.483C227.534 53.8581 227.413 54.1667 227.171 54.4087C226.929 54.6508 226.608 54.7718 226.209 54.7718C225.822 54.7718 225.513 54.6508 225.283 54.4087ZM237.971 57.5128V63.9569C237.971 64.7314 237.94 65.4514 237.88 66.117C237.783 67.1456 237.402 67.9443 236.736 68.5131C236.083 69.0819 235.151 69.3663 233.941 69.3663C232.731 69.3663 231.714 69.1848 230.891 68.8217C230.746 68.7612 230.698 68.6402 230.746 68.4587L231.073 67.4966C231.121 67.3272 231.242 67.2788 231.436 67.3514C232.174 67.6539 232.918 67.8052 233.669 67.8052C234.431 67.8052 235 67.6237 235.375 67.2606C235.75 66.8976 235.938 66.2562 235.938 65.3365V63.9206C235.405 64.7919 234.546 65.2275 233.36 65.2275C232.174 65.2275 231.266 64.8463 230.637 64.084C230.02 63.3216 229.711 62.1659 229.711 60.6169C229.711 59.0557 230.074 57.8698 230.8 57.059C231.539 56.2361 232.458 55.8246 233.56 55.8246C234.673 55.8246 235.568 56.2179 236.246 57.0045L236.428 56.2966C236.488 56.1151 236.597 56.0243 236.754 56.0243H238.969C239.151 56.0243 239.241 56.1151 239.241 56.2966V57.2405C239.241 57.422 239.151 57.5128 238.969 57.5128H237.971ZM235.938 61.6152V58.3841C235.889 58.3115 235.811 58.2207 235.702 58.1118C235.605 58.0029 235.381 57.8637 235.03 57.6943C234.691 57.5128 234.322 57.422 233.923 57.422C233.281 57.422 232.761 57.6641 232.362 58.1481C231.962 58.6201 231.763 59.3825 231.763 60.4353C231.763 61.4882 231.908 62.2929 232.198 62.8496C232.489 63.3942 233.051 63.6664 233.886 63.6664C234.419 63.6664 234.891 63.4789 235.302 63.1037C235.726 62.7286 235.938 62.2324 235.938 61.6152ZM243.168 63.5757H244.311C244.493 63.5757 244.584 63.6664 244.584 63.848V64.7374C244.584 64.919 244.493 65.0097 244.311 65.0097H239.991C239.81 65.0097 239.719 64.919 239.719 64.7374V63.848C239.719 63.6664 239.81 63.5757 239.991 63.5757C239.991 63.5757 240.372 63.5757 241.135 63.5757V57.5128H240.155C239.973 57.5128 239.882 57.422 239.882 57.2405V56.2966C239.882 56.1151 239.973 56.0243 240.155 56.0243H242.896C243.077 56.0243 243.168 56.1151 243.168 56.2966V63.5757ZM240.971 54.4087C240.742 54.1667 240.627 53.8581 240.627 53.483C240.627 53.1078 240.742 52.7992 240.971 52.5572C241.213 52.3031 241.528 52.176 241.915 52.176C242.315 52.176 242.629 52.3031 242.859 52.5572C243.101 52.7992 243.222 53.1078 243.222 53.483C243.222 53.8581 243.101 54.1667 242.859 54.4087C242.617 54.6508 242.297 54.7718 241.897 54.7718C241.51 54.7718 241.201 54.6508 240.971 54.4087ZM248.377 57.5128V62.0872C248.377 62.656 248.449 63.0674 248.594 63.3216C248.74 63.5757 249.012 63.7028 249.411 63.7028C249.811 63.7028 250.198 63.618 250.573 63.4486C250.706 63.4002 250.803 63.4486 250.863 63.5938L251.19 64.4288C251.202 64.4651 251.208 64.5196 251.208 64.5922C251.208 64.6527 251.148 64.7193 251.027 64.7919C250.446 65.0823 249.756 65.2275 248.957 65.2275C247.88 65.2275 247.173 64.9492 246.834 64.3925C246.592 64.0295 246.452 63.6785 246.416 63.3397C246.368 62.8798 246.344 62.3958 246.344 61.8875V57.5128H245.309C245.127 57.5128 245.037 57.422 245.037 57.2405V56.2966C245.037 56.1151 245.127 56.0243 245.309 56.0243H246.344V53.5737C246.344 53.3922 246.434 53.3015 246.616 53.3015H248.104C248.286 53.3015 248.377 53.3922 248.377 53.5737V56.0243H250.21C250.392 56.0243 250.482 56.1151 250.482 56.2966V57.2405C250.482 57.422 250.392 57.5128 250.21 57.5128H248.377ZM257.242 59.6185V58.9831C257.242 58.1239 257 57.5854 256.516 57.3676C256.286 57.2708 255.953 57.2224 255.517 57.2224C254.694 57.2224 254.198 57.6096 254.029 58.3841C253.993 58.5656 253.902 58.6564 253.757 58.6564H252.595C252.401 58.6564 252.316 58.5656 252.341 58.3841C252.389 57.5007 252.746 56.8533 253.412 56.4418C254.077 56.0304 254.924 55.8246 255.953 55.8246C258.119 55.8246 259.202 56.817 259.202 58.8016V63.5757H259.983C260.164 63.5757 260.255 63.6664 260.255 63.848V64.7374C260.255 64.919 260.164 65.0097 259.983 65.0097H257.841C257.683 65.0097 257.593 64.919 257.569 64.7374L257.441 63.9024C256.788 64.7858 255.844 65.2275 254.61 65.2275C253.835 65.2275 253.194 65.0279 252.686 64.6285C252.177 64.2171 251.923 63.5636 251.923 62.6681C251.923 61.4942 252.413 60.6895 253.393 60.2538C254.204 59.8787 255.172 59.6729 256.298 59.6366C256.528 59.6366 256.842 59.6306 257.242 59.6185ZM257.278 62.2687V60.871C256.116 60.871 255.402 60.9254 255.136 61.0344C254.87 61.1433 254.634 61.2522 254.428 61.3611C254.041 61.5668 253.847 61.942 253.847 62.4865C253.847 63.3216 254.325 63.7391 255.281 63.7391C255.911 63.7391 256.401 63.5938 256.752 63.3034C257.103 63.0009 257.278 62.656 257.278 62.2687ZM264.547 51.7404V63.5757H265.69C265.872 63.5757 265.962 63.6664 265.962 63.848V64.7374C265.962 64.919 265.872 65.0097 265.69 65.0097H261.37C261.188 65.0097 261.098 64.919 261.098 64.7374V63.848C261.098 63.6664 261.188 63.5757 261.37 63.5757H262.513V52.9566H261.533C261.352 52.9566 261.261 52.8658 261.261 52.6843V51.7404C261.261 51.5588 261.352 51.4681 261.533 51.4681H264.274C264.456 51.4681 264.547 51.5588 264.547 51.7404Z" fill="white"/>
</svg>
