<svg width="267" height="84" viewBox="0 0 267 84" fill="none" xmlns="http://www.w3.org/2000/svg">
<path d="M87.8225 59.8375V21.674H84.2937C83.6402 21.674 83.3135 21.3472 83.3135 20.6937V17.2303C83.3135 16.5768 83.6402 16.2501 84.2937 16.2501H94.1613C94.8148 16.2501 95.1415 16.5768 95.1415 17.2303V37.5537C96.1871 35.811 97.5812 34.4387 99.3238 33.4367C101.11 32.4347 103.027 31.9337 105.075 31.9337C109.083 31.9337 112.219 33.2624 114.485 35.9199C116.75 38.5774 117.883 42.738 117.883 48.4015C117.883 54.0215 116.576 58.3345 113.962 61.3405C111.392 64.3029 107.993 65.7842 103.768 65.7842C101.371 65.7842 99.2803 65.3703 97.4941 64.5426C95.7515 63.6712 94.4881 62.6039 93.7039 61.3405L93.3118 64.0198C93.2682 64.6733 92.9415 65 92.3316 65H84.359C83.7056 65 83.3788 64.6733 83.3788 64.0198V60.8177C83.3788 60.1642 83.7056 59.8375 84.359 59.8375H87.8225ZM95.1415 45.2648V56.8314C95.6643 57.6156 96.6663 58.378 98.1476 59.1186C99.6724 59.8593 101.154 60.2296 102.591 60.2296C107.863 60.2296 110.498 56.5047 110.498 49.055C110.498 43.6528 109.279 40.2547 106.839 38.8606C105.793 38.2507 104.356 37.9457 102.526 37.9457C100.696 37.9457 98.9971 38.621 97.4287 39.9715C95.9039 41.2785 95.1415 43.0429 95.1415 45.2648ZM130.951 33.5674L138.597 57.3542L145.393 38.0111H142.061C141.407 38.0111 141.08 37.6843 141.08 37.0309V33.6327C141.08 32.9793 141.407 32.6525 142.061 32.6525H151.602C152.124 32.6525 152.473 32.805 152.647 33.11C152.821 33.4149 152.909 33.6981 152.909 33.9595C152.909 34.1773 152.865 34.3951 152.778 34.613L138.793 71.1428C138.14 72.7982 137.573 74.0617 137.094 74.933C136.659 75.8478 136.027 76.8063 135.199 77.8083C133.587 79.7252 131.213 80.6836 128.076 80.6836C124.939 80.6836 122.369 80.2044 120.365 79.246C120.016 79.0717 119.842 78.8539 119.842 78.5925C119.842 78.3311 119.864 78.135 119.908 78.0043L121.019 74.8023C121.193 74.2359 121.607 74.0399 122.26 74.2141C124.351 74.9112 126.05 75.2597 127.357 75.2597C128.708 75.2597 129.732 74.9112 130.429 74.2141C131.169 73.5606 131.932 72.1665 132.716 70.0318L134.35 65.7188L124.417 38.0111H121.149C120.496 38.0111 120.169 37.6843 120.169 37.0309V33.6327C120.169 32.9793 120.496 32.6525 121.149 32.6525H129.71C130.363 32.6525 130.777 32.9575 130.951 33.5674ZM167.06 38.0111V54.4789C167.06 56.5265 167.321 58.0077 167.844 58.9226C168.367 59.8375 169.347 60.2949 170.785 60.2949C172.223 60.2949 173.617 59.99 174.967 59.38C175.446 59.2058 175.795 59.38 176.013 59.9028L177.189 62.9088C177.233 63.0395 177.254 63.2356 177.254 63.497C177.254 63.7148 177.037 63.9544 176.601 64.2158C174.51 65.2614 172.027 65.7842 169.151 65.7842C165.274 65.7842 162.725 64.7822 161.505 62.7782C160.634 61.4712 160.133 60.2078 160.002 58.9879C159.828 57.3324 159.741 55.5898 159.741 53.7601V38.0111H156.016C155.363 38.0111 155.036 37.6843 155.036 37.0309V33.6327C155.036 32.9793 155.363 32.6525 156.016 32.6525H159.741V23.8305C159.741 23.177 160.068 22.8502 160.721 22.8502H166.08C166.733 22.8502 167.06 23.177 167.06 23.8305V32.6525H173.66C174.314 32.6525 174.64 32.9793 174.64 33.6327V37.0309C174.64 37.6843 174.314 38.0111 173.66 38.0111H167.06ZM195.496 65.7842C190.312 65.7842 186.5 64.2812 184.06 61.2751C181.664 58.2255 180.466 54.2175 180.466 49.251C180.466 44.241 181.751 40.1022 184.321 36.8348C186.892 33.5674 190.595 31.9337 195.43 31.9337C197.827 31.9337 199.874 32.3911 201.573 33.306C203.316 34.1773 204.645 35.3754 205.559 36.9002C207.302 39.8626 208.173 43.2825 208.173 47.1599C208.173 48.9896 208.086 49.9916 207.912 50.1659C207.738 50.3402 207.411 50.4273 206.932 50.4273H187.719C187.937 53.564 188.7 56.0037 190.007 57.7463C191.357 59.4454 193.666 60.2949 196.933 60.2949C199.33 60.2949 201.791 59.7286 204.318 58.5959C204.928 58.2909 205.363 58.4652 205.625 59.1186L206.866 62.1247C207.084 62.6475 206.888 63.0831 206.278 63.4316C203.403 65 199.809 65.7842 195.496 65.7842ZM187.719 45.5915H201.312C201.399 40.1458 199.264 37.423 194.908 37.423C192.337 37.423 190.508 38.2507 189.418 39.9062C188.373 41.5181 187.806 43.4132 187.719 45.5915Z" fill="#1E3D58"/>
<path d="M222.143 63.3083H222.923C223.105 63.3083 223.195 63.399 223.195 63.5806V64.47C223.195 64.6515 223.105 64.7423 222.923 64.7423H220.872C220.715 64.7423 220.624 64.6515 220.6 64.47L220.454 63.399C219.837 64.4398 218.851 64.9601 217.496 64.9601C216.31 64.9601 215.396 64.591 214.755 63.8528C214.113 63.1025 213.793 61.9468 213.793 60.3857C213.793 58.8125 214.162 57.6145 214.9 56.7916C215.65 55.9687 216.612 55.5572 217.786 55.5572C218.319 55.5572 218.791 55.6601 219.202 55.8658C219.613 56.0594 219.916 56.2954 220.11 56.5738V52.7073H219.148C218.966 52.7073 218.875 52.6165 218.875 52.435V51.4729C218.875 51.2914 218.966 51.2007 219.148 51.2007H221.87C222.052 51.2007 222.143 51.2914 222.143 51.4729V63.3083ZM220.11 61.3297V58.1349C219.952 57.8928 219.674 57.6689 219.275 57.4632C218.887 57.2575 218.494 57.1546 218.095 57.1546C216.594 57.1546 215.844 58.1712 215.844 60.2042C215.844 61.7653 216.183 62.7395 216.86 63.1268C217.151 63.2962 217.55 63.3809 218.058 63.3809C218.567 63.3809 219.033 63.1933 219.456 62.8182C219.892 62.443 220.11 61.9468 220.11 61.3297ZM227.48 63.3083H228.623C228.805 63.3083 228.895 63.399 228.895 63.5806V64.47C228.895 64.6515 228.805 64.7423 228.623 64.7423H224.303C224.121 64.7423 224.031 64.6515 224.031 64.47V63.5806C224.031 63.399 224.121 63.3083 224.303 63.3083C224.303 63.3083 224.684 63.3083 225.447 63.3083V57.2454H224.466C224.285 57.2454 224.194 57.1546 224.194 56.9731V56.0292C224.194 55.8477 224.285 55.7569 224.466 55.7569H227.207C227.389 55.7569 227.48 55.8477 227.48 56.0292V63.3083ZM225.283 54.1413C225.053 53.8993 224.938 53.5907 224.938 53.2156C224.938 52.8404 225.053 52.5318 225.283 52.2898C225.525 52.0357 225.84 51.9086 226.227 51.9086C226.626 51.9086 226.941 52.0357 227.171 52.2898C227.413 52.5318 227.534 52.8404 227.534 53.2156C227.534 53.5907 227.413 53.8993 227.171 54.1413C226.929 54.3834 226.608 54.5044 226.209 54.5044C225.822 54.5044 225.513 54.3834 225.283 54.1413ZM237.971 57.2454V63.6895C237.971 64.464 237.94 65.184 237.88 65.8496C237.783 66.8782 237.402 67.6769 236.736 68.2457C236.083 68.8145 235.151 69.0989 233.941 69.0989C232.731 69.0989 231.714 68.9173 230.891 68.5543C230.746 68.4938 230.698 68.3728 230.746 68.1913L231.073 67.2292C231.121 67.0598 231.242 67.0114 231.436 67.084C232.174 67.3865 232.918 67.5378 233.669 67.5378C234.431 67.5378 235 67.3562 235.375 66.9932C235.75 66.6302 235.938 65.9888 235.938 65.0691V63.6532C235.405 64.5245 234.546 64.9601 233.36 64.9601C232.174 64.9601 231.266 64.5789 230.637 63.8165C230.02 63.0541 229.711 61.8984 229.711 60.3494C229.711 58.7883 230.074 57.6024 230.8 56.7916C231.539 55.9687 232.458 55.5572 233.56 55.5572C234.673 55.5572 235.568 55.9505 236.246 56.7371L236.428 56.0292C236.488 55.8477 236.597 55.7569 236.754 55.7569H238.969C239.151 55.7569 239.241 55.8477 239.241 56.0292V56.9731C239.241 57.1546 239.151 57.2454 238.969 57.2454H237.971ZM235.938 61.3478V58.1167C235.889 58.0441 235.811 57.9533 235.702 57.8444C235.605 57.7355 235.381 57.5963 235.03 57.4269C234.691 57.2454 234.322 57.1546 233.923 57.1546C233.281 57.1546 232.761 57.3967 232.362 57.8807C231.962 58.3527 231.763 59.1151 231.763 60.1679C231.763 61.2208 231.908 62.0255 232.198 62.5822C232.489 63.1268 233.051 63.399 233.886 63.399C234.419 63.399 234.891 63.2115 235.302 62.8363C235.726 62.4612 235.938 61.965 235.938 61.3478ZM243.168 63.3083H244.311C244.493 63.3083 244.584 63.399 244.584 63.5806V64.47C244.584 64.6515 244.493 64.7423 244.311 64.7423H239.991C239.81 64.7423 239.719 64.6515 239.719 64.47V63.5806C239.719 63.399 239.81 63.3083 239.991 63.3083C239.991 63.3083 240.372 63.3083 241.135 63.3083V57.2454H240.155C239.973 57.2454 239.882 57.1546 239.882 56.9731V56.0292C239.882 55.8477 239.973 55.7569 240.155 55.7569H242.896C243.077 55.7569 243.168 55.8477 243.168 56.0292V63.3083ZM240.971 54.1413C240.742 53.8993 240.627 53.5907 240.627 53.2156C240.627 52.8404 240.742 52.5318 240.971 52.2898C241.213 52.0357 241.528 51.9086 241.915 51.9086C242.315 51.9086 242.629 52.0357 242.859 52.2898C243.101 52.5318 243.222 52.8404 243.222 53.2156C243.222 53.5907 243.101 53.8993 242.859 54.1413C242.617 54.3834 242.297 54.5044 241.897 54.5044C241.51 54.5044 241.201 54.3834 240.971 54.1413ZM248.377 57.2454V61.8198C248.377 62.3886 248.449 62.8 248.594 63.0541C248.74 63.3083 249.012 63.4353 249.411 63.4353C249.811 63.4353 250.198 63.3506 250.573 63.1812C250.706 63.1328 250.803 63.1812 250.863 63.3264L251.19 64.1614C251.202 64.1977 251.208 64.2522 251.208 64.3248C251.208 64.3853 251.148 64.4519 251.027 64.5245C250.446 64.8149 249.756 64.9601 248.957 64.9601C247.88 64.9601 247.173 64.6818 246.834 64.1251C246.592 63.7621 246.452 63.4111 246.416 63.0723C246.368 62.6124 246.344 62.1284 246.344 61.6201V57.2454H245.309C245.127 57.2454 245.037 57.1546 245.037 56.9731V56.0292C245.037 55.8477 245.127 55.7569 245.309 55.7569H246.344V53.3063C246.344 53.1248 246.434 53.034 246.616 53.034H248.104C248.286 53.034 248.377 53.1248 248.377 53.3063V55.7569H250.21C250.392 55.7569 250.482 55.8477 250.482 56.0292V56.9731C250.482 57.1546 250.392 57.2454 250.21 57.2454H248.377ZM257.242 59.3511V58.7157C257.242 57.8565 257 57.318 256.516 57.1002C256.286 57.0034 255.953 56.955 255.517 56.955C254.694 56.955 254.198 57.3422 254.029 58.1167C253.993 58.2982 253.902 58.389 253.757 58.389H252.595C252.401 58.389 252.316 58.2982 252.341 58.1167C252.389 57.2333 252.746 56.5859 253.412 56.1744C254.077 55.7629 254.924 55.5572 255.953 55.5572C258.119 55.5572 259.202 56.5495 259.202 58.5342V63.3083H259.983C260.164 63.3083 260.255 63.399 260.255 63.5806V64.47C260.255 64.6515 260.164 64.7423 259.983 64.7423H257.841C257.683 64.7423 257.593 64.6515 257.569 64.47L257.441 63.635C256.788 64.5184 255.844 64.9601 254.61 64.9601C253.835 64.9601 253.194 64.7605 252.686 64.3611C252.177 63.9497 251.923 63.2962 251.923 62.4007C251.923 61.2268 252.413 60.4221 253.393 59.9864C254.204 59.6112 255.172 59.4055 256.298 59.3692C256.528 59.3692 256.842 59.3632 257.242 59.3511ZM257.278 62.0013V60.6036C256.116 60.6036 255.402 60.658 255.136 60.7669C254.87 60.8759 254.634 60.9848 254.428 61.0937C254.041 61.2994 253.847 61.6746 253.847 62.2191C253.847 63.0541 254.325 63.4716 255.281 63.4716C255.911 63.4716 256.401 63.3264 256.752 63.036C257.103 62.7334 257.278 62.3886 257.278 62.0013ZM264.547 51.4729V63.3083H265.69C265.872 63.3083 265.962 63.399 265.962 63.5806V64.47C265.962 64.6515 265.872 64.7423 265.69 64.7423H261.37C261.188 64.7423 261.098 64.6515 261.098 64.47V63.5806C261.098 63.399 261.188 63.3083 261.37 63.3083H262.513V52.6892H261.533C261.352 52.6892 261.261 52.5984 261.261 52.4169V51.4729C261.261 51.2914 261.352 51.2007 261.533 51.2007H264.274C264.456 51.2007 264.547 51.2914 264.547 51.4729Z" fill="#1E3D58"/>
<rect x="1.36143" y="-1.36143" width="65.3485" height="65.3485" rx="5.4457" transform="matrix(1 0 0 -1 0.77475 73.0632)" stroke="#1E3D58" stroke-width="2.72285"/>
<path d="M22.0419 58.5219V24.8964H31.9725C35.5753 24.8964 38.3081 25.6431 40.1711 27.1366C42.034 28.6146 42.9655 30.8009 42.9655 33.6954C42.9655 35.4352 42.4882 36.9517 41.5336 38.245C40.5945 39.5229 39.3012 40.439 37.6538 40.9932C39.6091 41.4243 41.1795 42.3866 42.365 43.88C43.5659 45.3735 44.1664 47.0978 44.1664 49.0532C44.1664 52.0247 43.2041 54.3495 41.2796 56.0277C39.3704 57.6905 36.7069 58.5219 33.2889 58.5219H22.0419ZM24.8826 42.3558V56.1201H33.4044C35.837 56.1201 37.7615 55.5042 39.178 54.2725C40.6098 53.0254 41.3258 51.301 41.3258 49.0994C41.3258 47.0209 40.6406 45.3812 39.2704 44.1803C37.9155 42.9639 36.0372 42.3558 33.6353 42.3558H24.8826ZM24.8826 39.9771H32.6423C35.0133 39.9309 36.8455 39.3766 38.1387 38.3143C39.4474 37.2365 40.1018 35.6738 40.1018 33.6261C40.1018 31.4706 39.4243 29.8848 38.0695 28.8687C36.73 27.8371 34.6977 27.3213 31.9725 27.3213H24.8826V39.9771Z" fill="#1E3D58"/>
<path d="M28.7532 58.5219V24.8964H38.1526C40.9086 24.8964 43.3797 25.5277 45.5659 26.7902C47.7522 28.0373 49.4535 29.8309 50.6698 32.1712C51.9015 34.5114 52.5174 37.1749 52.5174 40.1618V43.2565C52.5174 46.2587 51.9092 48.9223 50.6929 51.2471C49.4766 53.572 47.7599 55.3656 45.5429 56.6281C43.3412 57.8906 40.8085 58.5219 37.9448 58.5219H28.7532ZM31.5938 27.3213V56.1201H37.9679C41.509 56.1201 44.3496 54.9499 46.4897 52.6097C48.6298 50.2541 49.6998 47.0748 49.6998 43.0717V40.1156C49.6998 36.2512 48.6452 33.1565 46.5359 30.8317C44.4266 28.5068 41.6476 27.3367 38.1988 27.3213H31.5938Z" fill="#1E3D58"/>
</svg>
